<svg width="44" height="60" viewBox="0 0 44 60" fill="none" xmlns="http://www.w3.org/2000/svg">
<path fill-rule="evenodd" clip-rule="evenodd" d="M44 22C44 31.3574 38.1579 39.3504 29.9221 42.5305L30.5818 46.8653L36.8612 45.8145L37.9077 52.0685L31.5359 53.1347L32.4249 58.9766L25.7081 59.9987L24.8341 54.2561L19.0464 55.2246L17.9999 48.9706L23.8801 47.9867L23.2679 43.9641C22.8483 43.9879 22.4256 44 22 44C9.84974 44 0 34.1503 0 22C0 9.84974 9.84974 0 22 0C34.1503 0 44 9.84974 44 22Z" fill="#696767"/>
<circle cx="22" cy="22" r="18" fill="white"/>
<path d="M22.5 15.5C23.6046 15.5 24.5 14.6046 24.5 13.5C24.5 12.3954 23.6046 11.5 22.5 11.5C21.3954 11.5 20.5 12.3954 20.5 13.5C20.5 14.6046 21.3954 15.5 22.5 15.5Z" fill="#696767"/>
<path d="M26.39 17.61C26 17.22 25.33 16.5 24.03 16.5H21.49C18.74 16.49 16.5 14.25 16.5 11.5H14.5C14.5 14.66 16.61 17.34 19.5 18.21V31.5H21.5V25.5H23.5V31.5H25.5V19.55L29.45 23.5L30.86 22.09L26.39 17.61Z" fill="#696767"/>
</svg>
