<svg width="42" height="55" viewBox="0 0 42 55" fill="none" xmlns="http://www.w3.org/2000/svg">
<g clip-path="url(#clip0_2_2)">
<path fill-rule="evenodd" clip-rule="evenodd" d="M21 0C32.598 0 42 9.40202 42 21C42 22.4157 41.8599 23.7986 41.5929 25.1358C39.7394 39.1032 21.1104 55 21.1104 55C21.1104 55 5.25689 41.4717 1.34456 28.4096C0.475507 26.1054 0 23.6083 0 21C0 9.40202 9.40202 0 21 0Z" fill="#696767"/>
<path d="M21 38C30.3888 38 38 30.3888 38 21C38 11.6112 30.3888 4 21 4C11.6112 4 4 11.6112 4 21C4 30.3888 11.6112 38 21 38Z" fill="white"/>
<path d="M21.5 15.5C22.6046 15.5 23.5 14.6046 23.5 13.5C23.5 12.3954 22.6046 11.5 21.5 11.5C20.3954 11.5 19.5 12.3954 19.5 13.5C19.5 14.6046 20.3954 15.5 21.5 15.5Z" fill="#696767"/>
<path d="M25.39 17.61C25 17.22 24.33 16.5 23.03 16.5H20.49C17.74 16.49 15.5 14.25 15.5 11.5H13.5C13.5 14.66 15.61 17.34 18.5 18.21V31.5H20.5V25.5H22.5V31.5H24.5V19.55L28.45 23.5L29.86 22.09L25.39 17.61Z" fill="#696767"/>
</g>
<defs>
<clipPath id="clip0_2_2">
<rect width="42" height="55" fill="white"/>
</clipPath>
</defs>
</svg>
