<svg width="44" height="60" viewBox="0 0 44 60" fill="none" xmlns="http://www.w3.org/2000/svg">
<path fill-rule="evenodd" clip-rule="evenodd" d="M44 21.9949C44 31.3523 38.1579 39.3453 29.9221 42.5253L30.5818 46.8601L36.8612 45.8094L37.9077 52.0634L31.5359 53.1296L32.4249 58.9714L25.7081 59.9936L24.8341 54.251L19.0464 55.2195L17.9999 48.9655L23.8801 47.9816L23.2679 43.9589C22.8483 43.9828 22.4256 43.9949 22 43.9949C9.84974 43.9949 0 34.1451 0 21.9949C0 9.84461 9.84974 -0.00512695 22 -0.00512695C34.1503 -0.00512695 44 9.84461 44 21.9949Z" fill="#EB115A"/>
<circle cx="22" cy="21.9949" r="18" fill="white"/>
<path d="M12.0833 29.9949C12.4999 28.8394 12.8013 27.6102 12.9875 26.3074C13.1737 25.0045 13.2889 23.6115 13.3333 22.1281C12.6499 21.9005 12.0902 21.4727 11.6542 20.8449C11.2181 20.217 11 19.5115 11 18.7281V17.0616C12.9167 16.406 14.8736 15.4254 16.8707 14.1199C18.8681 12.8144 20.5778 11.4394 22 9.99487C23.4222 11.4394 25.1319 12.8144 27.1292 14.1199C29.1264 15.4254 31.0833 16.406 33 17.0616V18.7281C33 19.5115 32.7847 20.217 32.3542 20.8449C31.9236 21.4727 31.3666 21.9005 30.6833 22.1281C30.7166 23.5671 30.8291 24.9435 31.0208 26.2574C31.2124 27.5712 31.5166 28.817 31.9333 29.9949H12.0833ZM15.1333 17.0616H28.8667C27.6222 16.406 26.4264 15.6712 25.2792 14.8574C24.1319 14.0435 23.0388 13.1783 22 12.2616C21.0055 13.145 19.9291 13.9991 18.7707 14.8241C17.6124 15.6491 16.3999 16.395 15.1333 17.0616ZM24.55 20.6449C25.0445 20.6449 25.4514 20.4546 25.7708 20.0741C26.0903 19.6935 26.25 19.2448 26.25 18.7281H22.8333C22.8333 19.2448 22.9958 19.6935 23.3208 20.0741C23.6458 20.4546 24.0555 20.6449 24.55 20.6449ZM19.4668 20.6449C19.9611 20.6449 20.368 20.4546 20.6875 20.0741C21.007 19.6935 21.1668 19.2448 21.1668 18.7281H17.75C17.75 19.2448 17.9125 19.6935 18.2375 20.0741C18.5625 20.4546 18.9723 20.6449 19.4668 20.6449ZM14.3833 20.6449C14.8778 20.6449 15.2848 20.4546 15.6043 20.0741C15.9236 19.6935 16.0833 19.2448 16.0833 18.7281H12.6667C12.6667 19.2448 12.8292 19.6935 13.1542 20.0741C13.4792 20.4546 13.8889 20.6449 14.3833 20.6449ZM14.3 28.3281H17.4082C17.5472 27.4281 17.6639 26.481 17.7582 25.4866C17.8527 24.4921 17.9361 23.3338 18.0082 22.0116C17.8361 21.9283 17.6444 21.8019 17.4332 21.6324C17.2222 21.4629 17.0668 21.2948 16.9668 21.1281C16.6944 21.4338 16.3958 21.6796 16.0708 21.8656C15.7458 22.0518 15.3888 22.1865 15 22.2699C14.9555 23.3865 14.8778 24.4407 14.7668 25.4324C14.6556 26.424 14.5 27.3893 14.3 28.3281ZM19.1168 28.3281H24.9C24.7667 27.4448 24.6597 26.517 24.5792 25.5449C24.4986 24.5727 24.4277 23.481 24.3667 22.2699C23.8556 22.2365 23.3875 22.1101 22.9625 21.8906C22.5375 21.6713 22.2 21.3755 21.95 21.0031C21.7 21.3755 21.3736 21.6713 20.9707 21.8906C20.5681 22.1101 20.1278 22.2365 19.65 22.2699C19.5888 23.292 19.5207 24.306 19.4457 25.3116C19.3707 26.3171 19.2611 27.3226 19.1168 28.3281ZM26.5917 28.3281H29.7167C29.4944 27.3448 29.3305 26.3518 29.225 25.3491C29.1195 24.3463 29.0501 23.3199 29.0167 22.2699C28.6389 22.1865 28.2972 22.0546 27.9917 21.8741C27.6861 21.6935 27.3999 21.4448 27.1333 21.1281C26.9778 21.3281 26.7972 21.5045 26.5917 21.6574C26.3861 21.8102 26.1916 21.9283 26.0083 22.0116C26.0583 22.9783 26.1291 23.9783 26.2208 25.0116C26.3124 26.045 26.4361 27.1505 26.5917 28.3281ZM29.6333 20.6449C30.1278 20.6449 30.5347 20.4546 30.8542 20.0741C31.1736 19.6935 31.3333 19.2448 31.3333 18.7281H27.9167C27.9167 19.2448 28.0792 19.6935 28.4042 20.0741C28.7292 20.4546 29.1389 20.6449 29.6333 20.6449Z" fill="#EB115A"/>
</svg>
