<svg width="42" height="55" viewBox="0 0 42 55" fill="none" xmlns="http://www.w3.org/2000/svg">
<g clip-path="url(#clip0_1_13)">
<path fill-rule="evenodd" clip-rule="evenodd" d="M21 0C32.598 0 42 9.40202 42 21C42 22.4157 41.8599 23.7986 41.5929 25.1358C39.7394 39.1032 21.1104 55 21.1104 55C21.1104 55 5.25689 41.4717 1.34456 28.4096C0.475507 26.1054 0 23.6083 0 21C0 9.40202 9.40202 0 21 0Z" fill="#EB115A"/>
<path d="M21 38C30.3888 38 38 30.3888 38 21C38 11.6112 30.3888 4 21 4C11.6112 4 4 11.6112 4 21C4 30.3888 11.6112 38 21 38Z" fill="white"/>
<path d="M11.0833 30C11.4999 28.8445 11.8013 27.6153 11.9875 26.3125C12.1737 25.0096 12.2889 23.6166 12.3333 22.1332C11.6499 21.9056 11.0902 21.4778 10.6542 20.85C10.2181 20.2221 10 19.5166 10 18.7332V17.0667C11.9167 16.4111 13.8736 15.4305 15.8707 14.125C17.8681 12.8195 19.5778 11.4445 21 9.99997C22.4222 11.4445 24.1319 12.8195 26.1292 14.125C28.1264 15.4305 30.0833 16.4111 32 17.0667V18.7332C32 19.5166 31.7847 20.2221 31.3542 20.85C30.9236 21.4778 30.3666 21.9056 29.6833 22.1332C29.7166 23.5722 29.8291 24.9486 30.0208 26.2625C30.2124 27.5763 30.5166 28.8221 30.9333 30H11.0833ZM14.1333 17.0667H27.8667C26.6222 16.4111 25.4264 15.6763 24.2792 14.8625C23.1319 14.0486 22.0388 13.1834 21 12.2667C20.0055 13.1501 18.9291 14.0042 17.7707 14.8292C16.6124 15.6542 15.3999 16.4001 14.1333 17.0667ZM23.55 20.65C24.0445 20.65 24.4514 20.4597 24.7708 20.0792C25.0903 19.6986 25.25 19.2499 25.25 18.7332H21.8333C21.8333 19.2499 21.9958 19.6986 22.3208 20.0792C22.6458 20.4597 23.0555 20.65 23.55 20.65ZM18.4668 20.65C18.9611 20.65 19.368 20.4597 19.6875 20.0792C20.007 19.6986 20.1668 19.2499 20.1668 18.7332H16.75C16.75 19.2499 16.9125 19.6986 17.2375 20.0792C17.5625 20.4597 17.9723 20.65 18.4668 20.65ZM13.3833 20.65C13.8778 20.65 14.2848 20.4597 14.6043 20.0792C14.9236 19.6986 15.0833 19.2499 15.0833 18.7332H11.6667C11.6667 19.2499 11.8292 19.6986 12.1542 20.0792C12.4792 20.4597 12.8889 20.65 13.3833 20.65ZM13.3 28.3332H16.4082C16.5472 27.4332 16.6639 26.4861 16.7582 25.4917C16.8527 24.4972 16.9361 23.3389 17.0082 22.0167C16.8361 21.9334 16.6444 21.807 16.4332 21.6375C16.2222 21.468 16.0668 21.2999 15.9668 21.1332C15.6944 21.4389 15.3958 21.6847 15.0708 21.8707C14.7458 22.0569 14.3888 22.1916 14 22.275C13.9555 23.3916 13.8778 24.4458 13.7668 25.4375C13.6556 26.4291 13.5 27.3944 13.3 28.3332ZM18.1168 28.3332H23.9C23.7667 27.4499 23.6597 26.5221 23.5792 25.55C23.4986 24.5778 23.4277 23.4861 23.3667 22.275C22.8556 22.2416 22.3875 22.1152 21.9625 21.8957C21.5375 21.6764 21.2 21.3806 20.95 21.0082C20.7 21.3806 20.3736 21.6764 19.9707 21.8957C19.5681 22.1152 19.1278 22.2416 18.65 22.275C18.5888 23.2971 18.5207 24.3111 18.4457 25.3167C18.3707 26.3222 18.2611 27.3277 18.1168 28.3332ZM25.5917 28.3332H28.7167C28.4944 27.3499 28.3305 26.3569 28.225 25.3542C28.1195 24.3514 28.0501 23.325 28.0167 22.275C27.6389 22.1916 27.2972 22.0597 26.9917 21.8792C26.6861 21.6986 26.3999 21.4499 26.1333 21.1332C25.9778 21.3332 25.7972 21.5096 25.5917 21.6625C25.3861 21.8153 25.1916 21.9334 25.0083 22.0167C25.0583 22.9834 25.1291 23.9834 25.2208 25.0167C25.3124 26.0501 25.4361 27.1556 25.5917 28.3332ZM28.6333 20.65C29.1278 20.65 29.5347 20.4597 29.8542 20.0792C30.1736 19.6986 30.3333 19.2499 30.3333 18.7332H26.9167C26.9167 19.2499 27.0792 19.6986 27.4042 20.0792C27.7292 20.4597 28.1389 20.65 28.6333 20.65Z" fill="#EB115A"/>
</g>
<defs>
<clipPath id="clip0_1_13">
<rect width="42" height="55" fill="white"/>
</clipPath>
</defs>
</svg>
