<svg width="44" height="60" viewBox="0 0 44 60" fill="none" xmlns="http://www.w3.org/2000/svg">
<path fill-rule="evenodd" clip-rule="evenodd" d="M44 21.9949C44 31.3523 38.1579 39.3453 29.9221 42.5253L30.5818 46.8601L36.8612 45.8094L37.9077 52.0634L31.5359 53.1296L32.4249 58.9714L25.7081 59.9936L24.8341 54.251L19.0464 55.2195L17.9999 48.9655L23.8801 47.9816L23.2679 43.9589C22.8483 43.9828 22.4256 43.9949 22 43.9949C9.84974 43.9949 0 34.1451 0 21.9949C0 9.84461 9.84974 -0.00512695 22 -0.00512695C34.1503 -0.00512695 44 9.84461 44 21.9949Z" fill="#F48F00"/>
<circle cx="22" cy="21.9949" r="18" fill="white"/>
<path d="M31.3333 26.9449V19.9449L21.9832 24.9949L11 18.9949L21.9832 12.9949L33 18.9949V26.9449H31.3333ZM21.9832 30.9949L14.8168 27.0781V21.9116L21.9832 25.8281L29.15 21.9116V27.0781L21.9832 30.9949Z" fill="#F48F00"/>
</svg>
