<svg width="42" height="55" viewBox="0 0 42 55" fill="none" xmlns="http://www.w3.org/2000/svg">
<g clip-path="url(#clip0_3_24)">
<path fill-rule="evenodd" clip-rule="evenodd" d="M21 0C32.598 0 42 9.40202 42 21C42 22.4157 41.8599 23.7986 41.5929 25.1358C39.7394 39.1032 21.1104 55 21.1104 55C21.1104 55 5.25689 41.4717 1.34456 28.4096C0.475507 26.1054 0 23.6083 0 21C0 9.40202 9.40202 0 21 0Z" fill="#F48F00"/>
<path d="M21 38C30.3888 38 38 30.3888 38 21C38 11.6112 30.3888 4 21 4C11.6112 4 4 11.6112 4 21C4 30.3888 11.6112 38 21 38Z" fill="white"/>
<path d="M30.3333 25.95V18.95L20.9832 24L10 18L20.9832 12L32 18V25.95H30.3333ZM20.9832 30L13.8168 26.0832V20.9167L20.9832 24.8332L28.15 20.9167V26.0832L20.9832 30Z" fill="#F48F00"/>
</g>
<defs>
<clipPath id="clip0_3_24">
<rect width="42" height="55" fill="white"/>
</clipPath>
</defs>
</svg>
