<svg width="42" height="55" viewBox="0 0 42 55" fill="none" xmlns="http://www.w3.org/2000/svg">
<g clip-path="url(#clip0_4_67)">
<path fill-rule="evenodd" clip-rule="evenodd" d="M21 0C32.598 0 42 9.40202 42 21C42 22.4157 41.8599 23.7986 41.5929 25.1358C39.7394 39.1032 21.1104 55 21.1104 55C21.1104 55 5.25689 41.4717 1.34456 28.4096C0.475507 26.1054 0 23.6083 0 21C0 9.40202 9.40202 0 21 0Z" fill="#20C2D0"/>
<path d="M21 38C30.3888 38 38 30.3888 38 21C38 11.6112 30.3888 4 21 4C11.6112 4 4 11.6112 4 21C4 30.3888 11.6112 38 21 38Z" fill="white"/>
<path d="M25.125 12C26.7917 12 28.1875 12.6166 29.3125 13.85C30.4375 15.0833 31 16.55 31 18.25C31 18.55 30.9833 18.8458 30.95 19.1375C30.9167 19.4291 30.8583 19.7166 30.775 20H24.525L22.825 17.45C22.7417 17.3166 22.625 17.2083 22.475 17.125C22.325 17.0416 22.1667 17 22 17C21.7833 17 21.5875 17.0666 21.4125 17.2C21.2375 17.3333 21.1167 17.5 21.05 17.7L19.7 21.75L18.825 20.45C18.7417 20.3166 18.625 20.2083 18.475 20.125C18.325 20.0416 18.1667 20 18 20H11.225C11.1417 19.7166 11.0833 19.4291 11.05 19.1375C11.0167 18.8458 11 18.5583 11 18.275C11 16.5583 11.5583 15.0833 12.675 13.85C13.7917 12.6166 15.1833 12 16.85 12C17.65 12 18.4042 12.1583 19.1125 12.475C19.8208 12.7916 20.45 13.2333 21 13.8C21.5333 13.2333 22.1542 12.7916 22.8625 12.475C23.5708 12.1583 24.325 12 25.125 12ZM21 30C20.7 30 20.4125 29.9458 20.1375 29.8375C19.8625 29.7291 19.6167 29.5666 19.4 29.35L12.7 22.625C12.6 22.525 12.5083 22.425 12.425 22.325C12.3417 22.225 12.2583 22.1166 12.175 22H17.45L19.15 24.55C19.2333 24.6833 19.35 24.7916 19.5 24.875C19.65 24.9583 19.8083 25 19.975 25C20.1917 25 20.3917 24.9333 20.575 24.8C20.7583 24.6666 20.8833 24.5 20.95 24.3L22.3 20.25L23.15 21.55C23.25 21.6833 23.375 21.7916 23.525 21.875C23.675 21.9583 23.8333 22 24 22H29.8L29.55 22.3L29.3 22.6L22.575 29.35C22.3583 29.5666 22.1167 29.7291 21.85 29.8375C21.5833 29.9458 21.3 30 21 30Z" fill="#20C2D0"/>
</g>
<defs>
<clipPath id="clip0_4_67">
<rect width="42" height="55" fill="white"/>
</clipPath>
</defs>
</svg>
