<svg width="44" height="60" viewBox="0 0 44 60" fill="none" xmlns="http://www.w3.org/2000/svg">
<path fill-rule="evenodd" clip-rule="evenodd" d="M44 21.9949C44 31.3523 38.1579 39.3453 29.9221 42.5253L30.5818 46.8601L36.8612 45.8094L37.9077 52.0634L31.5359 53.1296L32.4249 58.9714L25.7081 59.9936L24.8341 54.251L19.0464 55.2195L17.9999 48.9655L23.8801 47.9816L23.2679 43.9589C22.8483 43.9828 22.4256 43.9949 22 43.9949C9.84974 43.9949 0 34.1451 0 21.9949C0 9.84461 9.84974 -0.00512695 22 -0.00512695C34.1503 -0.00512695 44 9.84461 44 21.9949Z" fill="#20C2D0"/>
<circle cx="22" cy="21.9949" r="18" fill="white"/>
<path d="M26.125 12.9949C27.7917 12.9949 29.1875 13.6115 30.3125 14.8449C31.4375 16.0782 32 17.5449 32 19.2449C32 19.5449 31.9833 19.8407 31.95 20.1324C31.9167 20.424 31.8583 20.7115 31.775 20.9949H25.525L23.825 18.4449C23.7417 18.3115 23.625 18.2032 23.475 18.1199C23.325 18.0365 23.1667 17.9949 23 17.9949C22.7833 17.9949 22.5875 18.0615 22.4125 18.1949C22.2375 18.3282 22.1167 18.4949 22.05 18.6949L20.7 22.7449L19.825 21.4449C19.7417 21.3115 19.625 21.2032 19.475 21.1199C19.325 21.0365 19.1667 20.9949 19 20.9949H12.225C12.1417 20.7115 12.0833 20.424 12.05 20.1324C12.0167 19.8407 12 19.5532 12 19.2699C12 17.5532 12.5583 16.0782 13.675 14.8449C14.7917 13.6115 16.1833 12.9949 17.85 12.9949C18.65 12.9949 19.4042 13.1532 20.1125 13.4699C20.8208 13.7865 21.45 14.2282 22 14.7949C22.5333 14.2282 23.1542 13.7865 23.8625 13.4699C24.5708 13.1532 25.325 12.9949 26.125 12.9949ZM22 30.9949C21.7 30.9949 21.4125 30.9407 21.1375 30.8324C20.8625 30.724 20.6167 30.5615 20.4 30.3449L13.7 23.6199C13.6 23.5199 13.5083 23.4199 13.425 23.3199C13.3417 23.2199 13.2583 23.1115 13.175 22.9949H18.45L20.15 25.5449C20.2333 25.6782 20.35 25.7865 20.5 25.8699C20.65 25.9532 20.8083 25.9949 20.975 25.9949C21.1917 25.9949 21.3917 25.9282 21.575 25.7949C21.7583 25.6615 21.8833 25.4949 21.95 25.2949L23.3 21.2449L24.15 22.5449C24.25 22.6782 24.375 22.7865 24.525 22.8699C24.675 22.9532 24.8333 22.9949 25 22.9949H30.8L30.55 23.2949L30.3 23.5949L23.575 30.3449C23.3583 30.5615 23.1167 30.724 22.85 30.8324C22.5833 30.9407 22.3 30.9949 22 30.9949Z" fill="#20C2D0"/>
</svg>
