<svg width="42" height="55" viewBox="0 0 42 55" fill="none" xmlns="http://www.w3.org/2000/svg">
<g clip-path="url(#clip0_3_2)">
<path fill-rule="evenodd" clip-rule="evenodd" d="M21 0C32.598 0 42 9.40202 42 21C42 22.4157 41.8599 23.7986 41.5929 25.1358C39.7394 39.1032 21.1104 55 21.1104 55C21.1104 55 5.25689 41.4717 1.34456 28.4096C0.475507 26.1054 0 23.6083 0 21C0 9.40202 9.40202 0 21 0Z" fill="#EB115A"/>
<path d="M21 38C30.3888 38 38 30.3888 38 21C38 11.6112 30.3888 4 21 4C11.6112 4 4 11.6112 4 21C4 30.3888 11.6112 38 21 38Z" fill="white"/>
<path d="M14.0168 27.9949V18.4116L11 20.7116L10 19.3949L21 10.9949L25.3 14.2781V11.9949H27.9667V16.3116L32 19.3949L30.9833 20.7116L27.9667 18.3949V27.9949H23.1667V21.9949H18.8332V27.9949H14.0168ZM18.9168 17.8366H23.0833C23.0833 17.2921 22.8749 16.8435 22.4583 16.4906C22.0416 16.138 21.5555 15.9616 21 15.9616C20.4445 15.9616 19.9584 16.1371 19.5418 16.4881C19.1251 16.8391 18.9168 17.2886 18.9168 17.8366Z" fill="#EB115A"/>
</g>
<defs>
<clipPath id="clip0_3_2">
<rect width="42" height="55" fill="white"/>
</clipPath>
</defs>
</svg>
