<svg width="44" height="60" viewBox="0 0 44 60" fill="none" xmlns="http://www.w3.org/2000/svg">
<path fill-rule="evenodd" clip-rule="evenodd" d="M44 21.9949C44 31.3523 38.1579 39.3453 29.9221 42.5253L30.5818 46.8601L36.8612 45.8094L37.9077 52.0634L31.5359 53.1296L32.4249 58.9714L25.7081 59.9936L24.8341 54.251L19.0464 55.2195L17.9999 48.9655L23.8801 47.9816L23.2679 43.9589C22.8483 43.9828 22.4256 43.9949 22 43.9949C9.84974 43.9949 0 34.1451 0 21.9949C0 9.84461 9.84974 -0.00512695 22 -0.00512695C34.1503 -0.00512695 44 9.84461 44 21.9949Z" fill="#EB115A"/>
<circle cx="22" cy="21.9949" r="18" fill="white"/>
<path d="M15.0168 29.9949V20.4116L12 22.7116L11 21.3949L22 12.9949L26.3 16.2781V13.9949H28.9667V18.3116L33 21.3949L31.9833 22.7116L28.9667 20.3949V29.9949H24.1667V23.9949H19.8332V29.9949H15.0168ZM19.9168 19.8366H24.0833C24.0833 19.2921 23.8749 18.8435 23.4583 18.4906C23.0416 18.138 22.5555 17.9616 22 17.9616C21.4445 17.9616 20.9584 18.1371 20.5418 18.4881C20.1251 18.8391 19.9168 19.2886 19.9168 19.8366Z" fill="#EB115A"/>
</svg>
