<svg width="44" height="60" viewBox="0 0 44 60" fill="none" xmlns="http://www.w3.org/2000/svg">
<path fill-rule="evenodd" clip-rule="evenodd" d="M44 21.9949C44 31.3523 38.1579 39.3453 29.9221 42.5253L30.5818 46.8601L36.8612 45.8094L37.9077 52.0634L31.5359 53.1296L32.4249 58.9714L25.7081 59.9936L24.8341 54.251L19.0464 55.2195L17.9999 48.9655L23.8801 47.9816L23.2679 43.9589C22.8483 43.9828 22.4256 43.9949 22 43.9949C9.84974 43.9949 0 34.1451 0 21.9949C0 9.84461 9.84974 -0.00512695 22 -0.00512695C34.1503 -0.00512695 44 9.84461 44 21.9949Z" fill="#038004"/>
<circle cx="22" cy="21.9949" r="18" fill="white"/>
<path d="M12 30.9949V29.3281H21.1668V17.5366C20.7334 17.3866 20.3501 17.145 20.0168 16.8116C19.6834 16.4783 19.4418 16.095 19.2918 15.6616H15.5833L18.6668 23.0281C18.6556 23.806 18.3277 24.4671 17.6832 25.0116C17.0389 25.556 16.2556 25.8281 15.3333 25.8281C14.4111 25.8281 13.6278 25.556 12.9833 25.0116C12.3389 24.4671 12.0112 23.806 12 23.0281L15.0833 15.6616H13V13.9949H19.2918C19.4918 13.4115 19.8389 12.9324 20.3332 12.5574C20.8277 12.1824 21.3833 11.9949 22 11.9949C22.6167 11.9949 23.1722 12.1824 23.6667 12.5574C24.1611 12.9324 24.5083 13.4115 24.7083 13.9949H31V15.6616H28.9167L32 23.0281C31.9888 23.806 31.6611 24.4671 31.0167 25.0116C30.3722 25.556 29.5889 25.8281 28.6667 25.8281C27.7444 25.8281 26.9611 25.556 26.3167 25.0116C25.6722 24.4671 25.3444 23.806 25.3333 23.0281L28.4167 15.6616H24.7083C24.5583 16.095 24.3166 16.4783 23.9833 16.8116C23.6499 17.145 23.2666 17.3866 22.8333 17.5366V29.3281H32V30.9949H12ZM26.7917 22.9949H30.5417L28.6667 18.4781L26.7917 22.9949ZM13.4583 22.9949H17.2082L15.3333 18.4781L13.4583 22.9949ZM22 15.9949C22.3278 15.9949 22.6042 15.8796 22.8292 15.6491C23.0542 15.4185 23.1667 15.1448 23.1667 14.8281C23.1667 14.5005 23.0542 14.2241 22.8292 13.9991C22.6042 13.7741 22.3278 13.6616 22 13.6616C21.6833 13.6616 21.4098 13.7741 21.1793 13.9991C20.9486 14.2241 20.8332 14.5005 20.8332 14.8281C20.8332 15.1448 20.9486 15.4185 21.1793 15.6491C21.4098 15.8796 21.6833 15.9949 22 15.9949Z" fill="#038004"/>
</svg>
