<svg width="42" height="55" viewBox="0 0 42 55" fill="none" xmlns="http://www.w3.org/2000/svg">
<g clip-path="url(#clip0_4_51)">
<path fill-rule="evenodd" clip-rule="evenodd" d="M21 0C32.598 0 42 9.40202 42 21C42 22.4157 41.8599 23.7986 41.5929 25.1358C39.7394 39.1032 21.1104 55 21.1104 55C21.1104 55 5.25689 41.4717 1.34456 28.4096C0.475507 26.1054 0 23.6083 0 21C0 9.40202 9.40202 0 21 0Z" fill="#038004"/>
<path d="M21 38C30.3888 38 38 30.3888 38 21C38 11.6112 30.3888 4 21 4C11.6112 4 4 11.6112 4 21C4 30.3888 11.6112 38 21 38Z" fill="white"/>
<path d="M11 31V29.3332H20.1668V17.5417C19.7334 17.3917 19.3501 17.1501 19.0168 16.8167C18.6834 16.4834 18.4418 16.1001 18.2918 15.6667H14.5833L17.6668 23.0332C17.6556 23.8111 17.3277 24.4722 16.6832 25.0167C16.0389 25.5611 15.2556 25.8332 14.3333 25.8332C13.4111 25.8332 12.6278 25.5611 11.9833 25.0167C11.3389 24.4722 11.0112 23.8111 11 23.0332L14.0833 15.6667H12V14H18.2918C18.4918 13.4166 18.8389 12.9375 19.3332 12.5625C19.8277 12.1875 20.3833 12 21 12C21.6167 12 22.1722 12.1875 22.6667 12.5625C23.1611 12.9375 23.5083 13.4166 23.7083 14H30V15.6667H27.9167L31 23.0332C30.9888 23.8111 30.6611 24.4722 30.0167 25.0167C29.3722 25.5611 28.5889 25.8332 27.6667 25.8332C26.7444 25.8332 25.9611 25.5611 25.3167 25.0167C24.6722 24.4722 24.3444 23.8111 24.3333 23.0332L27.4167 15.6667H23.7083C23.5583 16.1001 23.3166 16.4834 22.9833 16.8167C22.6499 17.1501 22.2666 17.3917 21.8333 17.5417V29.3332H31V31H11ZM25.7917 23H29.5417L27.6667 18.4832L25.7917 23ZM12.4583 23H16.2082L14.3333 18.4832L12.4583 23ZM21 16C21.3278 16 21.6042 15.8847 21.8292 15.6542C22.0542 15.4236 22.1667 15.1499 22.1667 14.8332C22.1667 14.5056 22.0542 14.2292 21.8292 14.0042C21.6042 13.7792 21.3278 13.6667 21 13.6667C20.6833 13.6667 20.4098 13.7792 20.1793 14.0042C19.9486 14.2292 19.8332 14.5056 19.8332 14.8332C19.8332 15.1499 19.9486 15.4236 20.1793 15.6542C20.4098 15.8847 20.6833 16 21 16Z" fill="#038004"/>
</g>
<defs>
<clipPath id="clip0_4_51">
<rect width="42" height="55" fill="white"/>
</clipPath>
</defs>
</svg>
