<svg width="42" height="55" viewBox="0 0 42 55" fill="none" xmlns="http://www.w3.org/2000/svg">
<g clip-path="url(#clip0_4_99)">
<path fill-rule="evenodd" clip-rule="evenodd" d="M21 0C32.598 0 42 9.40202 42 21C42 22.4157 41.8599 23.7986 41.5929 25.1358C39.7394 39.1032 21.1104 55 21.1104 55C21.1104 55 5.25689 41.4717 1.34456 28.4096C0.475507 26.1054 0 23.6083 0 21C0 9.40202 9.40202 0 21 0Z" fill="#038004"/>
<path d="M21 38C30.3888 38 38 30.3888 38 21C38 11.6112 30.3888 4 21 4C11.6112 4 4 11.6112 4 21C4 30.3888 11.6112 38 21 38Z" fill="white"/>
<path d="M9 27V25.5917C9 24.9242 9.3528 24.381 10.0583 23.962C10.7639 23.5428 11.691 23.3332 12.8395 23.3332C13.047 23.3332 13.2464 23.3374 13.4377 23.3457C13.6292 23.3541 13.8167 23.373 14 23.4025C13.8333 23.712 13.7083 24.0296 13.625 24.3552C13.5417 24.6811 13.5 25.021 13.5 25.375V27H9ZM15 27V25.375C15 24.8416 15.1458 24.3541 15.4375 23.9125C15.7292 23.4708 16.1417 23.0833 16.675 22.75C17.2083 22.4166 17.8458 22.1666 18.5875 22C19.3292 21.8333 20.1333 21.75 21 21.75C21.8833 21.75 22.6958 21.8333 23.4375 22C24.1792 22.1666 24.8167 22.4166 25.35 22.75C25.8833 23.0833 26.2917 23.4708 26.575 23.9125C26.8583 24.3541 27 24.8416 27 25.375V27H15ZM28.5 27V25.375C28.5 25.0098 28.4625 24.6657 28.3875 24.3427C28.3125 24.0197 28.1944 23.7067 28.0333 23.4037C28.2166 23.3734 28.4022 23.3541 28.5902 23.3457C28.7784 23.3374 28.9706 23.3332 29.1667 23.3332C30.3167 23.3332 31.2431 23.5389 31.9458 23.9502C32.6486 24.3616 33 24.9087 33 25.5917V27H28.5ZM12.826 22.5C12.3253 22.5 11.8958 22.3205 11.5375 21.9615C11.1792 21.6025 11 21.1709 11 20.6667C11 20.1556 11.1795 19.7222 11.5385 19.3667C11.8975 19.0111 12.3291 18.8332 12.8333 18.8332C13.3444 18.8332 13.7778 19.0111 14.1333 19.3667C14.4889 19.7222 14.6668 20.158 14.6668 20.674C14.6668 21.1746 14.4889 21.6041 14.1333 21.9625C13.7778 22.3208 13.342 22.5 12.826 22.5ZM29.1595 22.5C28.6587 22.5 28.2291 22.3205 27.8708 21.9615C27.5124 21.6025 27.3333 21.1709 27.3333 20.6667C27.3333 20.1556 27.5128 19.7222 27.872 19.3667C28.231 19.0111 28.6626 18.8332 29.1667 18.8332C29.6777 18.8332 30.1111 19.0111 30.4667 19.3667C30.8222 19.7222 31 20.158 31 20.674C31 21.1746 30.8222 21.6041 30.4667 21.9625C30.1111 22.3208 29.6753 22.5 29.1595 22.5ZM21 21C20.1667 21 19.4583 20.7083 18.875 20.125C18.2917 19.5416 18 18.8333 18 18C18 17.15 18.2917 16.4375 18.875 15.8625C19.4583 15.2875 20.1667 15 21 15C21.85 15 22.5625 15.2875 23.1375 15.8625C23.7125 16.4375 24 17.15 24 18C24 18.8333 23.7125 19.5416 23.1375 20.125C22.5625 20.7083 21.85 21 21 21Z" fill="#038004"/>
</g>
<defs>
<clipPath id="clip0_4_99">
<rect width="42" height="55" fill="white"/>
</clipPath>
</defs>
</svg>
