<svg width="44" height="60" viewBox="0 0 44 60" fill="none" xmlns="http://www.w3.org/2000/svg">
<path fill-rule="evenodd" clip-rule="evenodd" d="M44 21.9949C44 31.3523 38.1579 39.3453 29.9221 42.5253L30.5818 46.8601L36.8612 45.8094L37.9077 52.0634L31.5359 53.1296L32.4249 58.9714L25.7081 59.9936L24.8341 54.251L19.0464 55.2195L17.9999 48.9655L23.8801 47.9816L23.2679 43.9589C22.8483 43.9828 22.4256 43.9949 22 43.9949C9.84974 43.9949 0 34.1451 0 21.9949C0 9.84461 9.84974 -0.00512695 22 -0.00512695C34.1503 -0.00512695 44 9.84461 44 21.9949Z" fill="#038004"/>
<circle cx="22" cy="21.9949" r="18" fill="white"/>
<path d="M10 27.9949V26.5866C10 25.9191 10.3528 25.3759 11.0583 24.9569C11.7639 24.5377 12.691 24.3281 13.8395 24.3281C14.047 24.3281 14.2464 24.3323 14.4377 24.3406C14.6292 24.349 14.8167 24.3679 15 24.3974C14.8333 24.7069 14.7083 25.0245 14.625 25.3501C14.5417 25.676 14.5 26.0159 14.5 26.3699V27.9949H10ZM16 27.9949V26.3699C16 25.8365 16.1458 25.349 16.4375 24.9074C16.7292 24.4657 17.1417 24.0782 17.675 23.7449C18.2083 23.4115 18.8458 23.1615 19.5875 22.9949C20.3292 22.8282 21.1333 22.7449 22 22.7449C22.8833 22.7449 23.6958 22.8282 24.4375 22.9949C25.1792 23.1615 25.8167 23.4115 26.35 23.7449C26.8833 24.0782 27.2917 24.4657 27.575 24.9074C27.8583 25.349 28 25.8365 28 26.3699V27.9949H16ZM29.5 27.9949V26.3699C29.5 26.0047 29.4625 25.6606 29.3875 25.3376C29.3125 25.0146 29.1944 24.7016 29.0333 24.3986C29.2166 24.3683 29.4022 24.349 29.5902 24.3406C29.7784 24.3323 29.9706 24.3281 30.1667 24.3281C31.3167 24.3281 32.2431 24.5338 32.9458 24.9451C33.6486 25.3565 34 25.9036 34 26.5866V27.9949H29.5ZM13.826 23.4949C13.3253 23.4949 12.8958 23.3154 12.5375 22.9564C12.1792 22.5974 12 22.1658 12 21.6616C12 21.1505 12.1795 20.7171 12.5385 20.3616C12.8975 20.006 13.3291 19.8281 13.8333 19.8281C14.3444 19.8281 14.7778 20.006 15.1333 20.3616C15.4889 20.7171 15.6668 21.1529 15.6668 21.6689C15.6668 22.1695 15.4889 22.599 15.1333 22.9574C14.7778 23.3157 14.342 23.4949 13.826 23.4949ZM30.1595 23.4949C29.6587 23.4949 29.2291 23.3154 28.8708 22.9564C28.5124 22.5974 28.3333 22.1658 28.3333 21.6616C28.3333 21.1505 28.5128 20.7171 28.872 20.3616C29.231 20.006 29.6626 19.8281 30.1667 19.8281C30.6777 19.8281 31.1111 20.006 31.4667 20.3616C31.8222 20.7171 32 21.1529 32 21.6689C32 22.1695 31.8222 22.599 31.4667 22.9574C31.1111 23.3157 30.6753 23.4949 30.1595 23.4949ZM22 21.9949C21.1667 21.9949 20.4583 21.7032 19.875 21.1199C19.2917 20.5365 19 19.8282 19 18.9949C19 18.1449 19.2917 17.4324 19.875 16.8574C20.4583 16.2824 21.1667 15.9949 22 15.9949C22.85 15.9949 23.5625 16.2824 24.1375 16.8574C24.7125 17.4324 25 18.1449 25 18.9949C25 19.8282 24.7125 20.5365 24.1375 21.1199C23.5625 21.7032 22.85 21.9949 22 21.9949Z" fill="#038004"/>
</svg>
