<svg width="44" height="60" viewBox="0 0 44 60" fill="none" xmlns="http://www.w3.org/2000/svg">
<path fill-rule="evenodd" clip-rule="evenodd" d="M44 22C44 31.3574 38.1579 39.3504 29.9221 42.5305L30.5818 46.8653L36.8612 45.8145L37.9077 52.0685L31.5359 53.1347L32.4249 58.9766L25.7081 59.9987L24.8341 54.2561L19.0464 55.2246L17.9999 48.9706L23.8801 47.9867L23.2679 43.9641C22.8483 43.9879 22.4256 44 22 44C9.84974 44 0 34.1503 0 22C0 9.84974 9.84974 0 22 0C34.1503 0 44 9.84974 44 22Z" fill="#008001"/>
<circle cx="22" cy="22" r="18" fill="white"/>
<path d="M29.0312 18.0938C29.0312 14.2119 25.8818 11.0625 22 11.0625C18.1182 11.0625 14.9688 14.2119 14.9688 18.0938C14.9688 21.4385 17.3076 24.2412 20.4375 24.9492V27.4688H18.6797C18.3574 27.4688 18.0938 27.7324 18.0938 28.0547V30.0078C18.0938 30.3301 18.3574 30.5938 18.6797 30.5938H20.4375V32.3516C20.4375 32.6738 20.7012 32.9375 21.0234 32.9375H22.9766C23.2988 32.9375 23.5625 32.6738 23.5625 32.3516V30.5938H25.3203C25.6426 30.5938 25.9062 30.3301 25.9062 30.0078V28.0547C25.9062 27.7324 25.6426 27.4688 25.3203 27.4688H23.5625V24.9492C26.6924 24.2412 29.0312 21.4385 29.0312 18.0938ZM18.0938 18.0938C18.0938 15.9404 19.8467 14.1875 22 14.1875C24.1533 14.1875 25.9062 15.9404 25.9062 18.0938C25.9062 20.2471 24.1533 22 22 22C19.8467 22 18.0938 20.2471 18.0938 18.0938Z" fill="#008001"/>
</svg>
