<svg width="44" height="60" viewBox="0 0 44 60" fill="none" xmlns="http://www.w3.org/2000/svg">
<path fill-rule="evenodd" clip-rule="evenodd" d="M44 21.9987C44 31.3562 38.1579 39.3491 29.9221 42.5292L30.5818 46.864L36.8612 45.8132L37.9077 52.0672L31.5359 53.1334L32.4249 58.9753L25.7081 59.9975L24.8341 54.2548L19.0464 55.2233L17.9999 48.9693L23.8801 47.9854L23.2679 43.9628C22.8483 43.9866 22.4256 43.9987 22 43.9987C9.84974 43.9987 0 34.149 0 21.9987C0 9.84845 9.84974 -0.00128174 22 -0.00128174C34.1503 -0.00128174 44 9.84845 44 21.9987Z" fill="#0F7787"/>
<circle cx="22" cy="21.9987" r="18" fill="white"/>
<path d="M13.6667 29.9987C13.2167 29.9987 12.8264 29.8335 12.4958 29.503C12.1653 29.1723 12 28.782 12 28.332V23.8155H19.5168V25.482H24.5167V23.8155H32V28.332C32 28.782 31.8347 29.1723 31.5042 29.503C31.1736 29.8335 30.7833 29.9987 30.3333 29.9987H13.6667ZM21.1832 23.8155V22.1487H22.85V23.8155H21.1832ZM12 22.1487V16.6655C12 16.2155 12.1653 15.8251 12.4958 15.4945C12.8264 15.164 13.2167 14.9987 13.6667 14.9987H18V12.6655C18 12.2155 18.1652 11.8251 18.4957 11.4945C18.8264 11.164 19.2168 10.9987 19.6668 10.9987H24.3333C24.7833 10.9987 25.1736 11.164 25.5042 11.4945C25.8347 11.8251 26 12.2155 26 12.6655V14.9987H30.3333C30.7833 14.9987 31.1736 15.164 31.5042 15.4945C31.8347 15.8251 32 16.2155 32 16.6655V22.1487H24.5167V20.482H19.5168V22.1487H12ZM19.6668 14.9987H24.3333V12.6655H19.6668V14.9987Z" fill="#0F7787"/>
</svg>
