<svg width="42" height="55" viewBox="0 0 42 55" fill="none" xmlns="http://www.w3.org/2000/svg">
<g clip-path="url(#clip0_4_83)">
<path fill-rule="evenodd" clip-rule="evenodd" d="M21 0C32.598 0 42 9.40202 42 21C42 22.4157 41.8599 23.7986 41.5929 25.1358C39.7394 39.1032 21.1104 55 21.1104 55C21.1104 55 5.25689 41.4717 1.34456 28.4096C0.475507 26.1054 0 23.6083 0 21C0 9.40202 9.40202 0 21 0Z" fill="#0F7787"/>
<path d="M21 38C30.3888 38 38 30.3888 38 21C38 11.6112 30.3888 4 21 4C11.6112 4 4 11.6112 4 21C4 30.3888 11.6112 38 21 38Z" fill="white"/>
<path d="M12.6667 29C12.2167 29 11.8264 28.8348 11.4958 28.5043C11.1653 28.1736 11 27.7833 11 27.3333V22.8168H18.5168V24.4833H23.5167V22.8168H31V27.3333C31 27.7833 30.8347 28.1736 30.5042 28.5043C30.1736 28.8348 29.7833 29 29.3333 29H12.6667ZM20.1832 22.8168V21.15H21.85V22.8168H20.1832ZM11 21.15V15.6668C11 15.2168 11.1653 14.8264 11.4958 14.4958C11.8264 14.1653 12.2167 14 12.6667 14H17V11.6668C17 11.2168 17.1652 10.8264 17.4957 10.4958C17.8264 10.1653 18.2168 10 18.6668 10H23.3333C23.7833 10 24.1736 10.1653 24.5042 10.4958C24.8347 10.8264 25 11.2168 25 11.6668V14H29.3333C29.7833 14 30.1736 14.1653 30.5042 14.4958C30.8347 14.8264 31 15.2168 31 15.6668V21.15H23.5167V19.4833H18.5168V21.15H11ZM18.6668 14H23.3333V11.6668H18.6668V14Z" fill="#0F7787"/>
</g>
<defs>
<clipPath id="clip0_4_83">
<rect width="42" height="55" fill="white"/>
</clipPath>
</defs>
</svg>
